# MagicaVoxel @ Ephtracy

# group
o 

# material
mtllib Torpedo.vox.mtl
usemtl palette

# normals
vn -1 0 0
vn 1 0 0
vn 0 0 1
vn 0 0 -1
vn 0 -1 0
vn 0 1 0

# texcoords
vt 0.865234 0.5
vt 0.994141 0.5

# verts
v -1.4 0 0.4
v -1.4 0 0.1
v -1.4 0.1 0.8
v -1.4 0.1 0.4
v -1.4 0.1 0.1
v -1.4 0.1 -0.2
v -1.4 0.2 0.8
v -1.4 0.2 0.4
v -1.4 0.2 0.1
v -1.4 0.2 -0.2
v -1.4 0.3 0.4
v -1.4 0.3 0.3
v -1.4 0.3 0.2
v -1.4 0.3 0.1
v -1.4 0.6 0.3
v -1.4 0.6 0.2
v -1.3 0.1 -0.2
v -1.3 0.1 -0.3
v -1.3 0.2 0.5
v -1.3 0.2 0.4
v -1.3 0.2 0.1
v -1.3 0.2 0
v -1.3 0.2 -0.2
v -1.3 0.2 -0.3
v -1.3 0.3 0.5
v -1.3 0.3 0.4
v -1.3 0.3 0.1
v -1.3 0.3 0
v -1.2 0.1 0.8
v -1.2 0.1 0.7
v -1.2 0.1 -0.2
v -1.2 0.1 -0.3
v -1.2 0.2 0.8
v -1.2 0.2 0.7
v -1.2 0.2 -0.2
v -1.2 0.2 -0.3
v -1.2 0.5 0.3
v -1.2 0.5 0.2
v -1.2 0.6 0.3
v -1.2 0.6 0.2
v -1.1 0.1 0.7
v -1.1 0.1 0.6
v -1.1 0.1 -0.1
v -1.1 0.1 -0.2
v -1.1 0.2 0.7
v -1.1 0.2 0.6
v -1.1 0.2 -0.1
v -1.1 0.2 -0.2
v -1.1 0.4 0.3
v -1.1 0.4 0.2
v -1.1 0.5 0.3
v -1.1 0.5 0.2
v -1 0.1 0.6
v -1 0.1 0.5
v -1 0.1 0
v -1 0.1 -0.1
v -1 0.2 0.6
v -1 0.2 0.5
v -1 0.2 0
v -1 0.2 -0.1
v -0.8 0.2 0.5
v -0.8 0.2 0.4
v -0.8 0.2 0.1
v -0.8 0.2 0
v -0.8 0.3 0.5
v -0.8 0.3 0.4
v -0.8 0.3 0.1
v -0.8 0.3 0
v 0.8 0 0.4
v 0.8 0 0.3
v 0.8 0 0.2
v 0.8 0 0.1
v 0.8 0.1 0.5
v 0.8 0.1 0.4
v 0.8 0.1 0.3
v 0.8 0.1 0.2
v 0.8 0.1 0.1
v 0.8 0.1 0
v 0.8 0.2 0.5
v 0.8 0.2 0.4
v 0.8 0.2 0.3
v 0.8 0.2 0.2
v 0.8 0.2 0.1
v 0.8 0.2 0
v 0.8 0.3 0.4
v 0.8 0.3 0.3
v 0.8 0.3 0.2
v 0.8 0.3 0.1
v 0.8 0.4 0.3
v 0.8 0.4 0.2
v 0.9 0 0.3
v 0.9 0 0.2
v 0.9 0.1 0.4
v 0.9 0.1 0.3
v 0.9 0.1 0.2
v 0.9 0.1 0.1
v 0.9 0.2 0.4
v 0.9 0.2 0.3
v 0.9 0.2 0.2
v 0.9 0.2 0.1
v 0.9 0.3 0.3
v 0.9 0.3 0.2
v 1 0.1 0.3
v 1 0.1 0.2
v 1 0.2 0.3
v 1 0.2 0.2
v -1.4 0.1 0.8
v -1.4 0.2 0.8
v -1.2 0.1 0.8
v -1.2 0.2 0.8
v -1.2 0.1 0.7
v -1.2 0.2 0.7
v -1.1 0.1 0.7
v -1.1 0.2 0.7
v -1.1 0.1 0.6
v -1.1 0.2 0.6
v -1 0.1 0.6
v -1 0.2 0.6
v -1.3 0.2 0.5
v -1.3 0.3 0.5
v -1 0.1 0.5
v -1 0.2 0.5
v -0.8 0.2 0.5
v -0.8 0.3 0.5
v 0.3 0.1 0.5
v 0.3 0.2 0.5
v 0.8 0.1 0.5
v 0.8 0.2 0.5
v -1.4 0 0.4
v -1.4 0.1 0.4
v -1.4 0.2 0.4
v -1.4 0.3 0.4
v -1.3 0.2 0.4
v -1.3 0.3 0.4
v -0.8 0.2 0.4
v -0.8 0.3 0.4
v 0.3 0 0.4
v 0.3 0.1 0.4
v 0.3 0.2 0.4
v 0.3 0.3 0.4
v 0.8 0 0.4
v 0.8 0.1 0.4
v 0.8 0.2 0.4
v 0.8 0.3 0.4
v 0.9 0.1 0.4
v 0.9 0.2 0.4
v -1.4 0.3 0.3
v -1.4 0.6 0.3
v -1.2 0.5 0.3
v -1.2 0.6 0.3
v -1.1 0.4 0.3
v -1.1 0.5 0.3
v 0.3 0.3 0.3
v 0.3 0.4 0.3
v 0.8 0 0.3
v 0.8 0.1 0.3
v 0.8 0.2 0.3
v 0.8 0.3 0.3
v 0.8 0.4 0.3
v 0.9 0 0.3
v 0.9 0.1 0.3
v 0.9 0.2 0.3
v 0.9 0.3 0.3
v 1 0.1 0.3
v 1 0.2 0.3
v -1.4 0.3 0.2
v -1.4 0.6 0.2
v -1.2 0.5 0.2
v -1.2 0.6 0.2
v -1.1 0.4 0.2
v -1.1 0.5 0.2
v 0.3 0.3 0.2
v 0.3 0.4 0.2
v 0.8 0 0.2
v 0.8 0.1 0.2
v 0.8 0.2 0.2
v 0.8 0.3 0.2
v 0.8 0.4 0.2
v 0.9 0 0.2
v 0.9 0.1 0.2
v 0.9 0.2 0.2
v 0.9 0.3 0.2
v 1 0.1 0.2
v 1 0.2 0.2
v -1.4 0 0.1
v -1.4 0.1 0.1
v -1.4 0.2 0.1
v -1.4 0.3 0.1
v -1.3 0.2 0.1
v -1.3 0.3 0.1
v -0.8 0.2 0.1
v -0.8 0.3 0.1
v 0.3 0 0.1
v 0.3 0.1 0.1
v 0.3 0.2 0.1
v 0.3 0.3 0.1
v 0.8 0 0.1
v 0.8 0.1 0.1
v 0.8 0.2 0.1
v 0.8 0.3 0.1
v 0.9 0.1 0.1
v 0.9 0.2 0.1
v -1.3 0.2 0
v -1.3 0.3 0
v -1 0.1 0
v -1 0.2 0
v -0.8 0.2 0
v -0.8 0.3 0
v 0.3 0.1 0
v 0.3 0.2 0
v 0.8 0.1 0
v 0.8 0.2 0
v -1.1 0.1 -0.1
v -1.1 0.2 -0.1
v -1 0.1 -0.1
v -1 0.2 -0.1
v -1.4 0.1 -0.2
v -1.4 0.2 -0.2
v -1.3 0.1 -0.2
v -1.3 0.2 -0.2
v -1.2 0.1 -0.2
v -1.2 0.2 -0.2
v -1.1 0.1 -0.2
v -1.1 0.2 -0.2
v -1.3 0.1 -0.3
v -1.3 0.2 -0.3
v -1.2 0.1 -0.3
v -1.2 0.2 -0.3
v -1.4 0 0.4
v 0.3 0 0.4
v 0.8 0 0.4
v 0.8 0 0.3
v 0.9 0 0.3
v 0.8 0 0.2
v 0.9 0 0.2
v -1.4 0 0.1
v 0.3 0 0.1
v 0.8 0 0.1
v -1.4 0.1 0.8
v -1.2 0.1 0.8
v -1.2 0.1 0.7
v -1.1 0.1 0.7
v -1.1 0.1 0.6
v -1 0.1 0.6
v -1 0.1 0.5
v 0.3 0.1 0.5
v 0.8 0.1 0.5
v -1.4 0.1 0.4
v 0.3 0.1 0.4
v 0.8 0.1 0.4
v 0.9 0.1 0.4
v 0.8 0.1 0.3
v 0.9 0.1 0.3
v 1 0.1 0.3
v 0.8 0.1 0.2
v 0.9 0.1 0.2
v 1 0.1 0.2
v -1.4 0.1 0.1
v 0.3 0.1 0.1
v 0.8 0.1 0.1
v 0.9 0.1 0.1
v -1 0.1 0
v 0.3 0.1 0
v 0.8 0.1 0
v -1.1 0.1 -0.1
v -1 0.1 -0.1
v -1.4 0.1 -0.2
v -1.3 0.1 -0.2
v -1.2 0.1 -0.2
v -1.1 0.1 -0.2
v -1.3 0.1 -0.3
v -1.2 0.1 -0.3
v -1.4 0.2 0.8
v -1.2 0.2 0.8
v -1.2 0.2 0.7
v -1.1 0.2 0.7
v -1.1 0.2 0.6
v -1 0.2 0.6
v -1.3 0.2 0.5
v -1 0.2 0.5
v -0.8 0.2 0.5
v 0.3 0.2 0.5
v 0.8 0.2 0.5
v -1.4 0.2 0.4
v -1.3 0.2 0.4
v -0.8 0.2 0.4
v 0.3 0.2 0.4
v 0.8 0.2 0.4
v 0.9 0.2 0.4
v 0.8 0.2 0.3
v 0.9 0.2 0.3
v 1 0.2 0.3
v 0.8 0.2 0.2
v 0.9 0.2 0.2
v 1 0.2 0.2
v -1.4 0.2 0.1
v -1.3 0.2 0.1
v -0.8 0.2 0.1
v 0.3 0.2 0.1
v 0.8 0.2 0.1
v 0.9 0.2 0.1
v -1.3 0.2 0
v -1 0.2 0
v -0.8 0.2 0
v 0.3 0.2 0
v 0.8 0.2 0
v -1.1 0.2 -0.1
v -1 0.2 -0.1
v -1.4 0.2 -0.2
v -1.3 0.2 -0.2
v -1.2 0.2 -0.2
v -1.1 0.2 -0.2
v -1.3 0.2 -0.3
v -1.2 0.2 -0.3
v -1.3 0.3 0.5
v -0.8 0.3 0.5
v -1.4 0.3 0.4
v -1.3 0.3 0.4
v -0.8 0.3 0.4
v 0.3 0.3 0.4
v 0.8 0.3 0.4
v -1.4 0.3 0.3
v 0.3 0.3 0.3
v 0.8 0.3 0.3
v 0.9 0.3 0.3
v -1.4 0.3 0.2
v 0.3 0.3 0.2
v 0.8 0.3 0.2
v 0.9 0.3 0.2
v -1.4 0.3 0.1
v -1.3 0.3 0.1
v -0.8 0.3 0.1
v 0.3 0.3 0.1
v 0.8 0.3 0.1
v -1.3 0.3 0
v -0.8 0.3 0
v -1.1 0.4 0.3
v 0.3 0.4 0.3
v 0.8 0.4 0.3
v -1.1 0.4 0.2
v 0.3 0.4 0.2
v 0.8 0.4 0.2
v -1.2 0.5 0.3
v -1.1 0.5 0.3
v -1.2 0.5 0.2
v -1.1 0.5 0.2
v -1.4 0.6 0.3
v -1.2 0.6 0.3
v -1.4 0.6 0.2
v -1.2 0.6 0.2

# faces
f 4/1/1 2/1/1 1/1/1
f 5/1/1 2/1/1 4/1/1
f 7/1/1 4/1/1 3/1/1
f 7/1/1 6/1/1 5/1/1
f 7/1/1 5/1/1 4/1/1
f 8/1/1 6/1/1 7/1/1
f 9/1/1 6/1/1 8/1/1
f 10/1/1 6/1/1 9/1/1
f 11/1/1 9/1/1 8/1/1
f 12/1/1 9/1/1 11/1/1
f 13/1/1 9/1/1 12/1/1
f 14/1/1 9/1/1 13/1/1
f 15/1/1 13/1/1 12/1/1
f 16/1/1 13/1/1 15/1/1
f 23/1/1 18/1/1 17/1/1
f 24/1/1 18/1/1 23/1/1
f 25/1/1 20/1/1 19/1/1
f 26/1/1 20/1/1 25/1/1
f 27/1/1 22/1/1 21/1/1
f 28/1/1 22/1/1 27/1/1
f 29/1/2 30/1/2 33/1/2
f 33/1/2 30/1/2 34/1/2
f 31/1/2 32/1/2 35/1/2
f 35/1/2 32/1/2 36/1/2
f 37/1/2 38/1/2 39/1/2
f 39/1/2 38/1/2 40/1/2
f 41/1/2 42/1/2 45/1/2
f 45/1/2 42/1/2 46/1/2
f 43/1/2 44/1/2 47/1/2
f 47/1/2 44/1/2 48/1/2
f 49/1/2 50/1/2 51/1/2
f 51/1/2 50/1/2 52/1/2
f 53/1/2 54/1/2 57/1/2
f 57/1/2 54/1/2 58/1/2
f 55/1/2 56/1/2 59/1/2
f 59/1/2 56/1/2 60/1/2
f 61/1/2 62/1/2 65/1/2
f 65/1/2 62/1/2 66/1/2
f 63/1/2 64/1/2 67/1/2
f 67/1/2 64/1/2 68/1/2
f 69/2/2 70/2/2 74/2/2
f 74/2/2 70/2/2 75/2/2
f 71/2/2 72/2/2 76/2/2
f 76/2/2 72/2/2 77/2/2
f 73/2/2 74/2/2 79/2/2
f 79/2/2 74/2/2 80/2/2
f 77/2/2 78/2/2 83/2/2
f 83/2/2 78/2/2 84/2/2
f 80/2/2 81/2/2 85/2/2
f 85/2/2 81/2/2 86/2/2
f 82/2/2 83/2/2 87/2/2
f 87/2/2 83/2/2 88/2/2
f 86/2/2 87/2/2 89/2/2
f 89/2/2 87/2/2 90/2/2
f 91/2/2 92/2/2 94/2/2
f 94/2/2 92/2/2 95/2/2
f 93/2/2 94/2/2 97/2/2
f 97/2/2 94/2/2 98/2/2
f 95/2/2 96/2/2 99/2/2
f 99/2/2 96/2/2 100/2/2
f 98/2/2 99/2/2 101/2/2
f 101/2/2 99/2/2 102/2/2
f 103/2/2 104/2/2 105/2/2
f 105/2/2 104/2/2 106/2/2
f 109/1/3 108/1/3 107/1/3
f 110/1/3 108/1/3 109/1/3
f 113/1/3 112/1/3 111/1/3
f 114/1/3 112/1/3 113/1/3
f 117/1/3 116/1/3 115/1/3
f 118/1/3 116/1/3 117/1/3
f 122/1/3 120/1/3 119/1/3
f 123/1/3 120/1/3 122/1/3
f 123/1/3 122/1/3 121/1/3
f 124/1/3 120/1/3 123/1/3
f 125/1/3 123/1/3 121/1/3
f 126/1/3 123/1/3 125/1/3
f 127/2/3 126/2/3 125/2/3
f 128/2/3 126/2/3 127/2/3
f 133/1/3 132/1/3 131/1/3
f 134/1/3 132/1/3 133/1/3
f 137/1/3 130/1/3 129/1/3
f 138/1/3 130/1/3 137/1/3
f 139/1/3 136/1/3 135/1/3
f 140/1/3 136/1/3 139/1/3
f 141/2/3 138/2/3 137/2/3
f 142/2/3 138/2/3 141/2/3
f 143/2/3 140/2/3 139/2/3
f 144/2/3 140/2/3 143/2/3
f 145/2/3 143/2/3 142/2/3
f 146/2/3 143/2/3 145/2/3
f 149/1/3 148/1/3 147/1/3
f 150/1/3 148/1/3 149/1/3
f 151/1/3 149/1/3 147/1/3
f 152/1/3 149/1/3 151/1/3
f 153/1/3 151/1/3 147/1/3
f 154/1/3 151/1/3 153/1/3
f 158/2/3 154/2/3 153/2/3
f 159/2/3 154/2/3 158/2/3
f 160/2/3 156/2/3 155/2/3
f 161/2/3 156/2/3 160/2/3
f 162/2/3 158/2/3 157/2/3
f 163/2/3 158/2/3 162/2/3
f 164/2/3 162/2/3 161/2/3
f 165/2/3 162/2/3 164/2/3
f 166/1/4 167/1/4 168/1/4
f 168/1/4 167/1/4 169/1/4
f 166/1/4 168/1/4 170/1/4
f 170/1/4 168/1/4 171/1/4
f 166/1/4 170/1/4 172/1/4
f 172/1/4 170/1/4 173/1/4
f 172/2/4 173/2/4 177/2/4
f 177/2/4 173/2/4 178/2/4
f 174/2/4 175/2/4 179/2/4
f 179/2/4 175/2/4 180/2/4
f 176/2/4 177/2/4 181/2/4
f 181/2/4 177/2/4 182/2/4
f 180/2/4 181/2/4 183/2/4
f 183/2/4 181/2/4 184/2/4
f 187/1/4 188/1/4 189/1/4
f 189/1/4 188/1/4 190/1/4
f 185/1/4 186/1/4 193/1/4
f 193/1/4 186/1/4 194/1/4
f 191/1/4 192/1/4 195/1/4
f 195/1/4 192/1/4 196/1/4
f 193/2/4 194/2/4 197/2/4
f 197/2/4 194/2/4 198/2/4
f 195/2/4 196/2/4 199/2/4
f 199/2/4 196/2/4 200/2/4
f 198/2/4 199/2/4 201/2/4
f 201/2/4 199/2/4 202/2/4
f 203/1/4 204/1/4 206/1/4
f 206/1/4 204/1/4 207/1/4
f 205/1/4 206/1/4 207/1/4
f 207/1/4 204/1/4 208/1/4
f 205/1/4 207/1/4 209/1/4
f 209/1/4 207/1/4 210/1/4
f 209/2/4 210/2/4 211/2/4
f 211/2/4 210/2/4 212/2/4
f 213/1/4 214/1/4 215/1/4
f 215/1/4 214/1/4 216/1/4
f 217/1/4 218/1/4 219/1/4
f 219/1/4 218/1/4 220/1/4
f 221/1/4 222/1/4 223/1/4
f 223/1/4 222/1/4 224/1/4
f 225/1/4 226/1/4 227/1/4
f 227/1/4 226/1/4 228/1/4
f 232/2/5 231/2/5 230/2/5
f 234/2/5 232/2/5 230/2/5
f 234/2/5 233/2/5 232/2/5
f 235/2/5 233/2/5 234/2/5
f 236/1/5 230/1/5 229/1/5
f 237/2/5 234/2/5 230/2/5
f 237/1/5 230/1/5 236/1/5
f 238/2/5 234/2/5 237/2/5
f 241/1/5 240/1/5 239/1/5
f 243/1/5 242/1/5 241/1/5
f 245/1/5 244/1/5 243/1/5
f 248/1/5 241/1/5 239/1/5
f 248/1/5 243/1/5 241/1/5
f 248/1/5 246/1/5 245/1/5
f 248/1/5 245/1/5 243/1/5
f 249/2/5 247/2/5 246/2/5
f 249/1/5 246/1/5 248/1/5
f 250/2/5 247/2/5 249/2/5
f 252/2/5 251/2/5 250/2/5
f 253/2/5 251/2/5 252/2/5
f 256/2/5 254/2/5 253/2/5
f 257/2/5 254/2/5 256/2/5
f 260/2/5 256/2/5 255/2/5
f 261/2/5 256/2/5 260/2/5
f 262/1/5 259/1/5 258/1/5
f 263/2/5 260/2/5 259/2/5
f 263/1/5 259/1/5 262/1/5
f 264/2/5 260/2/5 263/2/5
f 265/1/5 262/1/5 258/1/5
f 266/1/5 262/1/5 265/1/5
f 267/1/5 265/1/5 258/1/5
f 268/1/5 265/1/5 267/1/5
f 269/1/5 265/1/5 268/1/5
f 270/1/5 265/1/5 269/1/5
f 271/1/5 269/1/5 268/1/5
f 272/1/5 269/1/5 271/1/5
f 273/1/6 274/1/6 275/1/6
f 275/1/6 276/1/6 277/1/6
f 273/1/6 275/1/6 279/1/6
f 277/1/6 278/1/6 279/1/6
f 275/1/6 277/1/6 279/1/6
f 279/1/6 278/1/6 280/1/6
f 273/1/6 279/1/6 284/1/6
f 284/1/6 279/1/6 285/1/6
f 281/1/6 282/1/6 286/1/6
f 282/2/6 283/2/6 287/2/6
f 286/1/6 282/1/6 287/1/6
f 287/2/6 283/2/6 288/2/6
f 288/2/6 289/2/6 290/2/6
f 290/2/6 289/2/6 291/2/6
f 291/2/6 292/2/6 294/2/6
f 294/2/6 292/2/6 295/2/6
f 293/2/6 294/2/6 300/2/6
f 300/2/6 294/2/6 301/2/6
f 296/1/6 297/1/6 302/1/6
f 298/1/6 299/1/6 304/1/6
f 299/2/6 300/2/6 305/2/6
f 304/1/6 299/1/6 305/1/6
f 305/2/6 300/2/6 306/2/6
f 302/1/6 303/1/6 307/1/6
f 307/1/6 303/1/6 308/1/6
f 296/1/6 302/1/6 309/1/6
f 302/1/6 307/1/6 309/1/6
f 309/1/6 307/1/6 310/1/6
f 310/1/6 307/1/6 311/1/6
f 311/1/6 307/1/6 312/1/6
f 310/1/6 311/1/6 313/1/6
f 313/1/6 311/1/6 314/1/6
f 315/1/6 316/1/6 318/1/6
f 318/1/6 316/1/6 319/1/6
f 317/1/6 318/1/6 322/1/6
f 318/1/6 319/1/6 322/1/6
f 319/1/6 320/1/6 322/1/6
f 320/2/6 321/2/6 323/2/6
f 322/1/6 320/1/6 323/1/6
f 323/2/6 321/2/6 324/2/6
f 324/2/6 325/2/6 328/2/6
f 328/2/6 325/2/6 329/2/6
f 326/1/6 327/1/6 330/1/6
f 330/1/6 327/1/6 331/1/6
f 331/1/6 327/1/6 332/1/6
f 327/2/6 328/2/6 333/2/6
f 332/1/6 327/1/6 333/1/6
f 333/2/6 328/2/6 334/2/6
f 331/1/6 332/1/6 335/1/6
f 335/1/6 332/1/6 336/1/6
f 337/1/6 338/1/6 340/1/6
f 338/2/6 339/2/6 341/2/6
f 340/1/6 338/1/6 341/1/6
f 341/2/6 339/2/6 342/2/6
f 343/1/6 344/1/6 345/1/6
f 345/1/6 344/1/6 346/1/6
f 347/1/6 348/1/6 349/1/6
f 349/1/6 348/1/6 350/1/6
